<mxfile host="app.diagrams.net" modified="2021-07-05T04:57:54.787Z" agent="5.0 (Windows NT 10.0; Win64; x64) AppleWebKit/537.36 (KHTML, like Gecko) Chrome/91.0.4472.124 Safari/537.36" etag="fMemcEG256YAtdrGGjDq" version="14.8.4" type="github">
  <diagram id="C5RBs43oDa-KdzZeNtuy" name="Page-1">
    <mxGraphModel dx="1278" dy="600" grid="1" gridSize="10" guides="1" tooltips="1" connect="1" arrows="1" fold="1" page="1" pageScale="1" pageWidth="827" pageHeight="1169" math="0" shadow="0">
      <root>
        <mxCell id="WIyWlLk6GJQsqaUBKTNV-0" />
        <mxCell id="WIyWlLk6GJQsqaUBKTNV-1" parent="WIyWlLk6GJQsqaUBKTNV-0" />
        <mxCell id="dquBDjCJUImRudF7uTo_-72" value="" style="group" vertex="1" connectable="0" parent="WIyWlLk6GJQsqaUBKTNV-1">
          <mxGeometry x="60" y="40" width="550" height="531" as="geometry" />
        </mxCell>
        <mxCell id="dquBDjCJUImRudF7uTo_-52" value="T" style="text;html=1;strokeColor=none;fillColor=none;align=center;verticalAlign=middle;whiteSpace=wrap;rounded=0;" vertex="1" parent="dquBDjCJUImRudF7uTo_-72">
          <mxGeometry x="370" y="225" width="40" height="20" as="geometry" />
        </mxCell>
        <mxCell id="dquBDjCJUImRudF7uTo_-55" value="T" style="text;html=1;strokeColor=none;fillColor=none;align=center;verticalAlign=middle;whiteSpace=wrap;rounded=0;" vertex="1" parent="dquBDjCJUImRudF7uTo_-72">
          <mxGeometry x="490" y="222.5" width="40" height="20" as="geometry" />
        </mxCell>
        <mxCell id="dquBDjCJUImRudF7uTo_-0" value="End" style="rounded=1;whiteSpace=wrap;html=1;fontSize=12;glass=0;strokeWidth=1;shadow=0;" vertex="1" parent="dquBDjCJUImRudF7uTo_-72">
          <mxGeometry x="50" y="511" width="60" height="20" as="geometry" />
        </mxCell>
        <mxCell id="WIyWlLk6GJQsqaUBKTNV-3" value="Start" style="rounded=1;whiteSpace=wrap;html=1;fontSize=12;glass=0;strokeWidth=1;shadow=0;" parent="dquBDjCJUImRudF7uTo_-72" vertex="1">
          <mxGeometry x="50" width="60" height="20" as="geometry" />
        </mxCell>
        <mxCell id="WIyWlLk6GJQsqaUBKTNV-6" value="gTaken&amp;lt;7" style="rhombus;whiteSpace=wrap;html=1;shadow=0;fontFamily=Helvetica;fontSize=12;align=center;strokeWidth=1;spacing=6;spacingTop=-4;" parent="dquBDjCJUImRudF7uTo_-72" vertex="1">
          <mxGeometry x="30" y="235" width="100" height="60" as="geometry" />
        </mxCell>
        <mxCell id="dquBDjCJUImRudF7uTo_-1" value="secretNb=randint(1,20)" style="rounded=0;whiteSpace=wrap;html=1;" vertex="1" parent="dquBDjCJUImRudF7uTo_-72">
          <mxGeometry y="40" width="160" height="20" as="geometry" />
        </mxCell>
        <mxCell id="WIyWlLk6GJQsqaUBKTNV-2" value="" style="rounded=0;html=1;jettySize=auto;orthogonalLoop=1;fontSize=11;endArrow=block;endFill=0;endSize=8;strokeWidth=1;shadow=0;labelBackgroundColor=none;edgeStyle=orthogonalEdgeStyle;entryX=0.5;entryY=0;entryDx=0;entryDy=0;" parent="dquBDjCJUImRudF7uTo_-72" source="WIyWlLk6GJQsqaUBKTNV-3" target="dquBDjCJUImRudF7uTo_-1" edge="1">
          <mxGeometry as="geometry">
            <mxPoint x="80" y="20" as="targetPoint" />
          </mxGeometry>
        </mxCell>
        <mxCell id="dquBDjCJUImRudF7uTo_-3" value="&#39;..thinking nb between 1..20&#39;" style="rounded=0;whiteSpace=wrap;html=1;" vertex="1" parent="dquBDjCJUImRudF7uTo_-72">
          <mxGeometry y="80" width="160" height="20" as="geometry" />
        </mxCell>
        <mxCell id="dquBDjCJUImRudF7uTo_-5" value="gTaken=0" style="rounded=0;whiteSpace=wrap;html=1;" vertex="1" parent="dquBDjCJUImRudF7uTo_-72">
          <mxGeometry y="120" width="160" height="20" as="geometry" />
        </mxCell>
        <mxCell id="dquBDjCJUImRudF7uTo_-7" value="g=input(&#39;Take a guess: &#39;)" style="rounded=0;whiteSpace=wrap;html=1;" vertex="1" parent="dquBDjCJUImRudF7uTo_-72">
          <mxGeometry x="160" y="255" width="150" height="20" as="geometry" />
        </mxCell>
        <mxCell id="dquBDjCJUImRudF7uTo_-10" value="g&amp;lt;secretNb" style="rhombus;whiteSpace=wrap;html=1;shadow=0;fontFamily=Helvetica;fontSize=12;align=center;strokeWidth=1;spacing=6;spacingTop=-4;" vertex="1" parent="dquBDjCJUImRudF7uTo_-72">
          <mxGeometry x="330" y="242.5" width="100" height="45" as="geometry" />
        </mxCell>
        <mxCell id="dquBDjCJUImRudF7uTo_-11" value="g&amp;gt;secretNb" style="rhombus;whiteSpace=wrap;html=1;shadow=0;fontFamily=Helvetica;fontSize=12;align=center;strokeWidth=1;spacing=6;spacingTop=-4;" vertex="1" parent="dquBDjCJUImRudF7uTo_-72">
          <mxGeometry x="450" y="242.5" width="100" height="45" as="geometry" />
        </mxCell>
        <mxCell id="dquBDjCJUImRudF7uTo_-12" value="break" style="rounded=0;whiteSpace=wrap;html=1;" vertex="1" parent="dquBDjCJUImRudF7uTo_-72">
          <mxGeometry x="477.5" y="315" width="45" height="20" as="geometry" />
        </mxCell>
        <mxCell id="dquBDjCJUImRudF7uTo_-14" value="" style="rounded=0;html=1;jettySize=auto;orthogonalLoop=1;fontSize=11;endArrow=block;endFill=0;endSize=8;strokeWidth=1;shadow=0;labelBackgroundColor=none;edgeStyle=orthogonalEdgeStyle;exitX=0.5;exitY=1;exitDx=0;exitDy=0;entryX=0.5;entryY=0;entryDx=0;entryDy=0;" edge="1" parent="dquBDjCJUImRudF7uTo_-72" source="dquBDjCJUImRudF7uTo_-1" target="dquBDjCJUImRudF7uTo_-3">
          <mxGeometry as="geometry">
            <mxPoint x="380" y="-30" as="sourcePoint" />
            <mxPoint x="370" y="60" as="targetPoint" />
            <Array as="points">
              <mxPoint x="80" y="60" />
              <mxPoint x="80" y="60" />
            </Array>
          </mxGeometry>
        </mxCell>
        <mxCell id="dquBDjCJUImRudF7uTo_-15" value="" style="rounded=0;html=1;jettySize=auto;orthogonalLoop=1;fontSize=11;endArrow=block;endFill=0;endSize=8;strokeWidth=1;shadow=0;labelBackgroundColor=none;edgeStyle=orthogonalEdgeStyle;exitX=0.5;exitY=1;exitDx=0;exitDy=0;entryX=0.5;entryY=0;entryDx=0;entryDy=0;" edge="1" parent="dquBDjCJUImRudF7uTo_-72" source="dquBDjCJUImRudF7uTo_-3" target="dquBDjCJUImRudF7uTo_-5">
          <mxGeometry as="geometry">
            <mxPoint x="380" y="-30" as="sourcePoint" />
            <mxPoint x="370" y="60" as="targetPoint" />
          </mxGeometry>
        </mxCell>
        <mxCell id="dquBDjCJUImRudF7uTo_-16" value="" style="rounded=0;html=1;jettySize=auto;orthogonalLoop=1;fontSize=11;endArrow=block;endFill=0;endSize=8;strokeWidth=1;shadow=0;labelBackgroundColor=none;edgeStyle=orthogonalEdgeStyle;exitX=0.5;exitY=1;exitDx=0;exitDy=0;" edge="1" parent="dquBDjCJUImRudF7uTo_-72" source="dquBDjCJUImRudF7uTo_-5">
          <mxGeometry as="geometry">
            <mxPoint x="380" y="-36" as="sourcePoint" />
            <mxPoint x="80" y="164" as="targetPoint" />
          </mxGeometry>
        </mxCell>
        <mxCell id="dquBDjCJUImRudF7uTo_-20" value="" style="rounded=0;html=1;jettySize=auto;orthogonalLoop=1;fontSize=11;endArrow=block;endFill=0;endSize=8;strokeWidth=1;shadow=0;labelBackgroundColor=none;edgeStyle=orthogonalEdgeStyle;exitX=1;exitY=0.5;exitDx=0;exitDy=0;" edge="1" parent="dquBDjCJUImRudF7uTo_-72" source="WIyWlLk6GJQsqaUBKTNV-6">
          <mxGeometry y="31" as="geometry">
            <mxPoint x="380" y="35" as="sourcePoint" />
            <mxPoint x="160" y="265" as="targetPoint" />
          </mxGeometry>
        </mxCell>
        <mxCell id="dquBDjCJUImRudF7uTo_-21" value="T" style="text;html=1;strokeColor=none;fillColor=none;align=center;verticalAlign=middle;whiteSpace=wrap;rounded=0;" vertex="1" parent="dquBDjCJUImRudF7uTo_-72">
          <mxGeometry x="115" y="245" width="40" height="20" as="geometry" />
        </mxCell>
        <mxCell id="dquBDjCJUImRudF7uTo_-22" value="F" style="text;html=1;strokeColor=none;fillColor=none;align=center;verticalAlign=middle;whiteSpace=wrap;rounded=0;" vertex="1" parent="dquBDjCJUImRudF7uTo_-72">
          <mxGeometry x="75" y="295" width="40" height="20" as="geometry" />
        </mxCell>
        <mxCell id="dquBDjCJUImRudF7uTo_-23" value="g==secretNb" style="rhombus;whiteSpace=wrap;html=1;shadow=0;fontFamily=Helvetica;fontSize=12;align=center;strokeWidth=1;spacing=6;spacingTop=-4;" vertex="1" parent="dquBDjCJUImRudF7uTo_-72">
          <mxGeometry x="30" y="355" width="100" height="60" as="geometry" />
        </mxCell>
        <mxCell id="dquBDjCJUImRudF7uTo_-24" value="" style="rounded=0;html=1;jettySize=auto;orthogonalLoop=1;fontSize=11;endArrow=block;endFill=0;endSize=8;strokeWidth=1;shadow=0;labelBackgroundColor=none;edgeStyle=orthogonalEdgeStyle;entryX=0.5;entryY=0;entryDx=0;entryDy=0;" edge="1" parent="dquBDjCJUImRudF7uTo_-72" target="dquBDjCJUImRudF7uTo_-41">
          <mxGeometry y="31" as="geometry">
            <mxPoint x="80" y="295" as="sourcePoint" />
            <mxPoint x="80" y="325" as="targetPoint" />
          </mxGeometry>
        </mxCell>
        <mxCell id="dquBDjCJUImRudF7uTo_-25" value="" style="ellipse;whiteSpace=wrap;html=1;aspect=fixed;" vertex="1" parent="dquBDjCJUImRudF7uTo_-72">
          <mxGeometry x="70" y="475.5" width="20" height="20" as="geometry" />
        </mxCell>
        <mxCell id="dquBDjCJUImRudF7uTo_-26" value="&#39;Nope..&#39;" style="rounded=0;whiteSpace=wrap;html=1;" vertex="1" parent="dquBDjCJUImRudF7uTo_-72">
          <mxGeometry x="32.5" y="435.5" width="95" height="20" as="geometry" />
        </mxCell>
        <mxCell id="dquBDjCJUImRudF7uTo_-27" value="&#39;Good job!...&#39;" style="rounded=0;whiteSpace=wrap;html=1;" vertex="1" parent="dquBDjCJUImRudF7uTo_-72">
          <mxGeometry x="160" y="375" width="95" height="20" as="geometry" />
        </mxCell>
        <mxCell id="dquBDjCJUImRudF7uTo_-30" value="" style="rounded=0;html=1;jettySize=auto;orthogonalLoop=1;fontSize=11;endArrow=block;endFill=0;endSize=8;strokeWidth=1;shadow=0;labelBackgroundColor=none;edgeStyle=orthogonalEdgeStyle;exitX=0.5;exitY=1;exitDx=0;exitDy=0;entryX=0.5;entryY=0;entryDx=0;entryDy=0;" edge="1" parent="dquBDjCJUImRudF7uTo_-72" source="dquBDjCJUImRudF7uTo_-23" target="dquBDjCJUImRudF7uTo_-26">
          <mxGeometry y="31" as="geometry">
            <mxPoint x="380" y="62.5" as="sourcePoint" />
            <mxPoint x="80" y="435.5" as="targetPoint" />
          </mxGeometry>
        </mxCell>
        <mxCell id="dquBDjCJUImRudF7uTo_-32" value="" style="rounded=0;html=1;jettySize=auto;orthogonalLoop=1;fontSize=11;endArrow=block;endFill=0;endSize=8;strokeWidth=1;shadow=0;labelBackgroundColor=none;edgeStyle=orthogonalEdgeStyle;exitX=0.5;exitY=1;exitDx=0;exitDy=0;" edge="1" parent="dquBDjCJUImRudF7uTo_-72" source="dquBDjCJUImRudF7uTo_-26">
          <mxGeometry y="31" as="geometry">
            <mxPoint x="380" y="55.5" as="sourcePoint" />
            <mxPoint x="80" y="475.5" as="targetPoint" />
          </mxGeometry>
        </mxCell>
        <mxCell id="dquBDjCJUImRudF7uTo_-35" value="" style="rounded=0;html=1;jettySize=auto;orthogonalLoop=1;fontSize=11;endArrow=block;endFill=0;endSize=8;strokeWidth=1;shadow=0;labelBackgroundColor=none;edgeStyle=orthogonalEdgeStyle;entryX=0.5;entryY=0;entryDx=0;entryDy=0;exitX=0.5;exitY=1;exitDx=0;exitDy=0;" edge="1" parent="dquBDjCJUImRudF7uTo_-72" source="dquBDjCJUImRudF7uTo_-25" target="dquBDjCJUImRudF7uTo_-0">
          <mxGeometry y="31" as="geometry">
            <mxPoint x="380" y="55.5" as="sourcePoint" />
            <mxPoint x="370" y="145.5" as="targetPoint" />
          </mxGeometry>
        </mxCell>
        <mxCell id="dquBDjCJUImRudF7uTo_-36" value="" style="rounded=0;html=1;jettySize=auto;orthogonalLoop=1;fontSize=11;endArrow=block;endFill=0;endSize=8;strokeWidth=1;shadow=0;labelBackgroundColor=none;edgeStyle=orthogonalEdgeStyle;exitX=1;exitY=0.5;exitDx=0;exitDy=0;" edge="1" parent="dquBDjCJUImRudF7uTo_-72" source="dquBDjCJUImRudF7uTo_-23">
          <mxGeometry y="31" as="geometry">
            <mxPoint x="380" y="62.5" as="sourcePoint" />
            <mxPoint x="160" y="385.5" as="targetPoint" />
          </mxGeometry>
        </mxCell>
        <mxCell id="dquBDjCJUImRudF7uTo_-37" value="" style="rounded=0;html=1;jettySize=auto;orthogonalLoop=1;fontSize=11;endArrow=block;endFill=0;endSize=8;strokeWidth=1;shadow=0;labelBackgroundColor=none;edgeStyle=orthogonalEdgeStyle;exitX=0.5;exitY=1;exitDx=0;exitDy=0;entryX=1;entryY=0.5;entryDx=0;entryDy=0;" edge="1" parent="dquBDjCJUImRudF7uTo_-72" source="dquBDjCJUImRudF7uTo_-27" target="dquBDjCJUImRudF7uTo_-25">
          <mxGeometry y="31" as="geometry">
            <mxPoint x="380" y="62.5" as="sourcePoint" />
            <mxPoint x="370" y="152.5" as="targetPoint" />
          </mxGeometry>
        </mxCell>
        <mxCell id="dquBDjCJUImRudF7uTo_-38" value="F" style="text;html=1;strokeColor=none;fillColor=none;align=center;verticalAlign=middle;whiteSpace=wrap;rounded=0;" vertex="1" parent="dquBDjCJUImRudF7uTo_-72">
          <mxGeometry x="70" y="412.5" width="40" height="20" as="geometry" />
        </mxCell>
        <mxCell id="dquBDjCJUImRudF7uTo_-39" value="T" style="text;html=1;strokeColor=none;fillColor=none;align=center;verticalAlign=middle;whiteSpace=wrap;rounded=0;" vertex="1" parent="dquBDjCJUImRudF7uTo_-72">
          <mxGeometry x="115" y="362.5" width="40" height="20" as="geometry" />
        </mxCell>
        <mxCell id="dquBDjCJUImRudF7uTo_-40" value="" style="ellipse;whiteSpace=wrap;html=1;aspect=fixed;" vertex="1" parent="dquBDjCJUImRudF7uTo_-72">
          <mxGeometry x="70" y="164" width="20" height="20" as="geometry" />
        </mxCell>
        <mxCell id="dquBDjCJUImRudF7uTo_-41" value="" style="ellipse;whiteSpace=wrap;html=1;aspect=fixed;" vertex="1" parent="dquBDjCJUImRudF7uTo_-72">
          <mxGeometry x="70" y="315" width="20" height="20" as="geometry" />
        </mxCell>
        <mxCell id="dquBDjCJUImRudF7uTo_-42" value="" style="rounded=0;html=1;jettySize=auto;orthogonalLoop=1;fontSize=11;endArrow=block;endFill=0;endSize=8;strokeWidth=1;shadow=0;labelBackgroundColor=none;edgeStyle=orthogonalEdgeStyle;exitX=0.5;exitY=1;exitDx=0;exitDy=0;entryX=0.5;entryY=0;entryDx=0;entryDy=0;" edge="1" parent="dquBDjCJUImRudF7uTo_-72" source="dquBDjCJUImRudF7uTo_-41" target="dquBDjCJUImRudF7uTo_-23">
          <mxGeometry y="31" as="geometry">
            <mxPoint x="90" y="295" as="sourcePoint" />
            <mxPoint x="90" y="325" as="targetPoint" />
          </mxGeometry>
        </mxCell>
        <mxCell id="dquBDjCJUImRudF7uTo_-43" value="" style="ellipse;whiteSpace=wrap;html=1;aspect=fixed;" vertex="1" parent="dquBDjCJUImRudF7uTo_-72">
          <mxGeometry x="370" y="164" width="20" height="20" as="geometry" />
        </mxCell>
        <mxCell id="dquBDjCJUImRudF7uTo_-45" value="" style="rounded=0;html=1;jettySize=auto;orthogonalLoop=1;fontSize=11;endArrow=block;endFill=0;endSize=8;strokeWidth=1;shadow=0;labelBackgroundColor=none;edgeStyle=orthogonalEdgeStyle;exitX=1;exitY=0.5;exitDx=0;exitDy=0;" edge="1" parent="dquBDjCJUImRudF7uTo_-72" source="dquBDjCJUImRudF7uTo_-7">
          <mxGeometry y="31" as="geometry">
            <mxPoint x="380" y="-15" as="sourcePoint" />
            <mxPoint x="330" y="265" as="targetPoint" />
          </mxGeometry>
        </mxCell>
        <mxCell id="dquBDjCJUImRudF7uTo_-46" value="" style="rounded=0;html=1;jettySize=auto;orthogonalLoop=1;fontSize=11;endArrow=block;endFill=0;endSize=8;strokeWidth=1;shadow=0;labelBackgroundColor=none;edgeStyle=orthogonalEdgeStyle;exitX=1;exitY=0.5;exitDx=0;exitDy=0;" edge="1" parent="dquBDjCJUImRudF7uTo_-72" source="dquBDjCJUImRudF7uTo_-10">
          <mxGeometry y="31" as="geometry">
            <mxPoint x="380" y="-15" as="sourcePoint" />
            <mxPoint x="450" y="265" as="targetPoint" />
          </mxGeometry>
        </mxCell>
        <mxCell id="dquBDjCJUImRudF7uTo_-47" value="F" style="text;html=1;strokeColor=none;fillColor=none;align=center;verticalAlign=middle;whiteSpace=wrap;rounded=0;" vertex="1" parent="dquBDjCJUImRudF7uTo_-72">
          <mxGeometry x="410" y="242.5" width="40" height="20" as="geometry" />
        </mxCell>
        <mxCell id="dquBDjCJUImRudF7uTo_-49" value="F" style="text;html=1;strokeColor=none;fillColor=none;align=center;verticalAlign=middle;whiteSpace=wrap;rounded=0;" vertex="1" parent="dquBDjCJUImRudF7uTo_-72">
          <mxGeometry x="490" y="287.5" width="40" height="20" as="geometry" />
        </mxCell>
        <mxCell id="dquBDjCJUImRudF7uTo_-51" value="" style="rounded=0;html=1;jettySize=auto;orthogonalLoop=1;fontSize=11;endArrow=block;endFill=0;endSize=8;strokeWidth=1;shadow=0;labelBackgroundColor=none;edgeStyle=orthogonalEdgeStyle;exitX=0.5;exitY=0;exitDx=0;exitDy=0;entryX=0.5;entryY=1;entryDx=0;entryDy=0;" edge="1" parent="dquBDjCJUImRudF7uTo_-72" source="dquBDjCJUImRudF7uTo_-10" target="dquBDjCJUImRudF7uTo_-63">
          <mxGeometry as="geometry">
            <mxPoint x="380" y="-46" as="sourcePoint" />
            <mxPoint x="380" y="220" as="targetPoint" />
          </mxGeometry>
        </mxCell>
        <mxCell id="dquBDjCJUImRudF7uTo_-53" value="" style="rounded=0;html=1;jettySize=auto;orthogonalLoop=1;fontSize=11;endArrow=block;endFill=0;endSize=8;strokeWidth=1;shadow=0;labelBackgroundColor=none;edgeStyle=orthogonalEdgeStyle;exitX=0.5;exitY=1;exitDx=0;exitDy=0;" edge="1" parent="dquBDjCJUImRudF7uTo_-72" source="dquBDjCJUImRudF7uTo_-11">
          <mxGeometry y="31" as="geometry">
            <mxPoint x="380" y="-15" as="sourcePoint" />
            <mxPoint x="500" y="315" as="targetPoint" />
          </mxGeometry>
        </mxCell>
        <mxCell id="dquBDjCJUImRudF7uTo_-54" value="" style="rounded=0;html=1;jettySize=auto;orthogonalLoop=1;fontSize=11;endArrow=block;endFill=0;endSize=8;strokeWidth=1;shadow=0;labelBackgroundColor=none;edgeStyle=orthogonalEdgeStyle;exitX=0;exitY=0.25;exitDx=0;exitDy=0;entryX=1;entryY=0.5;entryDx=0;entryDy=0;" edge="1" parent="dquBDjCJUImRudF7uTo_-72" source="dquBDjCJUImRudF7uTo_-12" target="dquBDjCJUImRudF7uTo_-41">
          <mxGeometry y="31" as="geometry">
            <mxPoint x="380" y="-25" as="sourcePoint" />
            <mxPoint x="370" y="65" as="targetPoint" />
            <Array as="points">
              <mxPoint x="478" y="325" />
            </Array>
          </mxGeometry>
        </mxCell>
        <mxCell id="dquBDjCJUImRudF7uTo_-19" value="" style="rounded=0;html=1;jettySize=auto;orthogonalLoop=1;fontSize=11;endArrow=block;endFill=0;endSize=8;strokeWidth=1;shadow=0;labelBackgroundColor=none;edgeStyle=orthogonalEdgeStyle;exitX=0;exitY=0.5;exitDx=0;exitDy=0;entryX=1;entryY=0.5;entryDx=0;entryDy=0;" edge="1" parent="dquBDjCJUImRudF7uTo_-72" source="dquBDjCJUImRudF7uTo_-43" target="dquBDjCJUImRudF7uTo_-59">
          <mxGeometry as="geometry">
            <mxPoint x="370" y="-56" as="sourcePoint" />
            <mxPoint x="320" y="174" as="targetPoint" />
          </mxGeometry>
        </mxCell>
        <mxCell id="dquBDjCJUImRudF7uTo_-56" value="" style="rounded=0;html=1;jettySize=auto;orthogonalLoop=1;fontSize=11;endArrow=block;endFill=0;endSize=8;strokeWidth=1;shadow=0;labelBackgroundColor=none;edgeStyle=orthogonalEdgeStyle;exitX=0.5;exitY=1;exitDx=0;exitDy=0;entryX=0.5;entryY=0;entryDx=0;entryDy=0;" edge="1" parent="dquBDjCJUImRudF7uTo_-72" source="dquBDjCJUImRudF7uTo_-40" target="WIyWlLk6GJQsqaUBKTNV-6">
          <mxGeometry as="geometry">
            <mxPoint x="90" y="144" as="sourcePoint" />
            <mxPoint x="90" y="174" as="targetPoint" />
          </mxGeometry>
        </mxCell>
        <mxCell id="dquBDjCJUImRudF7uTo_-59" value="gTaken+=1" style="rounded=0;whiteSpace=wrap;html=1;" vertex="1" parent="dquBDjCJUImRudF7uTo_-72">
          <mxGeometry x="160" y="164" width="150" height="20" as="geometry" />
        </mxCell>
        <mxCell id="dquBDjCJUImRudF7uTo_-61" value="" style="rounded=0;html=1;jettySize=auto;orthogonalLoop=1;fontSize=11;endArrow=block;endFill=0;endSize=8;strokeWidth=1;shadow=0;labelBackgroundColor=none;edgeStyle=orthogonalEdgeStyle;entryX=1;entryY=0.5;entryDx=0;entryDy=0;" edge="1" parent="dquBDjCJUImRudF7uTo_-72" target="dquBDjCJUImRudF7uTo_-40">
          <mxGeometry x="10" y="10" as="geometry">
            <mxPoint x="160" y="174" as="sourcePoint" />
            <mxPoint x="320" y="184" as="targetPoint" />
          </mxGeometry>
        </mxCell>
        <mxCell id="dquBDjCJUImRudF7uTo_-63" value="&#39;Too low..&#39;" style="rounded=0;whiteSpace=wrap;html=1;" vertex="1" parent="dquBDjCJUImRudF7uTo_-72">
          <mxGeometry x="341.25" y="200" width="77.5" height="22.5" as="geometry" />
        </mxCell>
        <mxCell id="dquBDjCJUImRudF7uTo_-64" value="&#39;Too high..&#39;" style="rounded=0;whiteSpace=wrap;html=1;" vertex="1" parent="dquBDjCJUImRudF7uTo_-72">
          <mxGeometry x="461.25" y="200" width="77.5" height="22.5" as="geometry" />
        </mxCell>
        <mxCell id="dquBDjCJUImRudF7uTo_-67" value="" style="rounded=0;html=1;jettySize=auto;orthogonalLoop=1;fontSize=11;endArrow=block;endFill=0;endSize=8;strokeWidth=1;shadow=0;labelBackgroundColor=none;edgeStyle=orthogonalEdgeStyle;entryX=0.5;entryY=1;entryDx=0;entryDy=0;exitX=0.75;exitY=0;exitDx=0;exitDy=0;" edge="1" parent="dquBDjCJUImRudF7uTo_-72" source="dquBDjCJUImRudF7uTo_-63" target="dquBDjCJUImRudF7uTo_-43">
          <mxGeometry x="20" y="20" as="geometry">
            <mxPoint x="380" y="200" as="sourcePoint" />
            <mxPoint x="100" y="184" as="targetPoint" />
          </mxGeometry>
        </mxCell>
        <mxCell id="dquBDjCJUImRudF7uTo_-68" value="" style="rounded=0;html=1;jettySize=auto;orthogonalLoop=1;fontSize=11;endArrow=block;endFill=0;endSize=8;strokeWidth=1;shadow=0;labelBackgroundColor=none;edgeStyle=orthogonalEdgeStyle;exitX=0.5;exitY=0;exitDx=0;exitDy=0;entryX=1;entryY=0.5;entryDx=0;entryDy=0;" edge="1" parent="dquBDjCJUImRudF7uTo_-72" source="dquBDjCJUImRudF7uTo_-64" target="dquBDjCJUImRudF7uTo_-43">
          <mxGeometry x="10" y="10" as="geometry">
            <mxPoint x="380.00000000000296" y="184" as="sourcePoint" />
            <mxPoint x="320" y="184" as="targetPoint" />
          </mxGeometry>
        </mxCell>
        <mxCell id="dquBDjCJUImRudF7uTo_-70" value="" style="rounded=0;html=1;jettySize=auto;orthogonalLoop=1;fontSize=11;endArrow=block;endFill=0;endSize=8;strokeWidth=1;shadow=0;labelBackgroundColor=none;edgeStyle=orthogonalEdgeStyle;exitX=0.25;exitY=1;exitDx=0;exitDy=0;entryX=0.25;entryY=0;entryDx=0;entryDy=0;" edge="1" parent="dquBDjCJUImRudF7uTo_-72" source="dquBDjCJUImRudF7uTo_-55" target="dquBDjCJUImRudF7uTo_-55">
          <mxGeometry x="10" y="10" as="geometry">
            <mxPoint x="390" y="252.5" as="sourcePoint" />
            <mxPoint x="390" y="232.5" as="targetPoint" />
          </mxGeometry>
        </mxCell>
      </root>
    </mxGraphModel>
  </diagram>
</mxfile>
